<?xml version="1.0" encoding="UTF-8"?>
<svg id="White" xmlns="http://www.w3.org/2000/svg" viewBox="0 0 234.76 52.31">
  <defs>
    <style>
      .cls-1 {
        fill: #812990;
      }

      .cls-1, .cls-2 {
        stroke-width: 0px;
      }

      .cls-2 {
        fill: #fff;
      }
    </style>
  </defs>
  <g>
    <path class="cls-2" d="M234.76,40.71c0-1.46-.4-2.67-1.28-3.51-.7-.65-1.65-1.07-3.16-1.28l-1.95-.28c-.68-.09-1.21-.35-1.54-.65-.35-.32-.49-.77-.49-1.19,0-1.14.84-2.09,2.56-2.09,1.09,0,2.35.14,3.4,1.14l2.05-2.02c-1.42-1.37-3.07-1.93-5.35-1.93-3.58,0-5.77,2.07-5.77,5.02,0,1.4.4,2.47,1.19,3.26.74.72,1.79,1.16,3.21,1.37l2,.28c.77.11,1.14.28,1.47.58.35.32.51.81.51,1.4,0,1.33-1.02,2.04-2.93,2.04-1.54,0-2.95-.35-4-1.39l-2.09,2.09c1.63,1.65,3.53,2.18,6.05,2.18,3.47,0,6.14-1.81,6.14-5.02M220.9,45.59v-2.88h-7.67v-4.02h6.54v-2.88h-6.54v-3.89h7.67v-2.88h-10.91v16.56h10.91ZM206.13,29.03h-3.23v16.56h3.23v-16.56ZM200.27,31.92v-2.88h-11.88v2.88h4.33v13.68h3.23v-13.68h4.32ZM186.46,45.59v-2.88h-7.67v-4.02h6.54v-2.88h-6.54v-3.89h7.67v-2.88h-10.9v16.56h10.9ZM171.69,29.03h-3.23v16.56h3.23v-16.56ZM165.66,40.5h-3.28c-.33,1.33-1.16,2.35-2.79,2.35-.89,0-1.61-.32-2.07-.86-.63-.7-.81-1.49-.81-4.68s.18-3.98.81-4.68c.47-.53,1.19-.86,2.07-.86,1.63,0,2.46,1.02,2.79,2.35h3.28c-.58-3.46-3-5.23-6.09-5.23-1.81,0-3.3.65-4.46,1.81-1.67,1.67-1.63,3.74-1.63,6.6s-.04,4.93,1.63,6.6c1.16,1.16,2.65,1.81,4.46,1.81,3.07,0,5.51-1.77,6.09-5.23M147.51,37.31c0,3.19-.19,3.95-.81,4.65-.47.54-1.19.88-2.07.88s-1.63-.35-2.1-.88c-.63-.7-.79-1.46-.79-4.65s.16-3.95.79-4.65c.47-.54,1.21-.88,2.1-.88s1.6.35,2.07.88c.63.7.81,1.46.81,4.65M150.74,37.31c0-2.86.02-4.93-1.65-6.6-1.16-1.16-2.58-1.81-4.46-1.81s-3.33.65-4.49,1.81c-1.67,1.67-1.63,3.74-1.63,6.6s-.05,4.93,1.63,6.6c1.16,1.16,2.6,1.81,4.49,1.81s3.3-.65,4.46-1.81c1.67-1.67,1.65-3.74,1.65-6.6M136.01,40.71c0-1.46-.4-2.67-1.28-3.51-.7-.65-1.65-1.07-3.16-1.28l-1.96-.28c-.67-.09-1.21-.35-1.54-.65-.35-.32-.49-.77-.49-1.19,0-1.14.84-2.09,2.56-2.09,1.1,0,2.35.14,3.4,1.14l2.04-2.02c-1.42-1.37-3.07-1.93-5.35-1.93-3.58,0-5.77,2.07-5.77,5.02,0,1.4.4,2.47,1.18,3.26.75.72,1.79,1.16,3.21,1.37l2,.28c.77.11,1.14.28,1.47.58.35.32.51.81.51,1.4,0,1.33-1.02,2.04-2.93,2.04-1.54,0-2.95-.35-4-1.39l-2.09,2.09c1.63,1.65,3.53,2.18,6.05,2.18,3.47,0,6.14-1.81,6.14-5.02"/>
    <path class="cls-2" d="M210.18,20.69c-.76.68-1.49.98-2.46.98-1.4,0-2.51-.95-2.51-2.33,0-1.19.67-1.84,1.67-2.53l3.3,3.88ZM209.39,11.5c0,.58-.42,1.02-.95,1.4,0,0-.47.33-.7.46-.58-.68-1.09-1.26-1.09-1.86,0-.77.46-1.35,1.37-1.35.86,0,1.37.58,1.37,1.35M217.06,24.27l-2.97-3.51c1.16-1.3,1.65-3,1.76-5.14h-2.86c-.05,1.19-.3,2.19-.84,2.91l-2.79-3.3c.42-.28,1.18-.86,1.18-.86,1.02-.74,1.7-1.61,1.7-2.89,0-2.25-1.63-3.9-4.23-3.9-2.77,0-4.42,1.6-4.42,3.86,0,1.58.98,2.75,1.65,3.51-1.44.95-2.97,2.33-2.97,4.44,0,3.12,1.81,5.02,5.46,5.02,2.37,0,3.51-.98,4.28-1.58l1.21,1.44h3.84ZM194.36,19.39c0-1.46-.4-2.67-1.28-3.51-.7-.65-1.65-1.07-3.16-1.28l-1.96-.28c-.68-.09-1.21-.35-1.54-.65-.35-.33-.49-.77-.49-1.19,0-1.14.84-2.09,2.56-2.09,1.09,0,2.35.14,3.4,1.14l2.04-2.02c-1.42-1.37-3.07-1.93-5.35-1.93-3.58,0-5.77,2.07-5.77,5.02,0,1.4.4,2.47,1.18,3.26.75.72,1.79,1.16,3.21,1.37l2,.28c.77.12,1.14.28,1.47.58.35.33.51.81.51,1.4,0,1.33-1.03,2.05-2.93,2.05-1.54,0-2.95-.35-4-1.4l-2.09,2.09c1.63,1.65,3.53,2.18,6.05,2.18,3.46,0,6.14-1.81,6.14-5.02M177.13,19.34c0,1.12-.7,2.05-2.17,2.05h-3.37v-4.07h3.37c1.47,0,2.17.91,2.17,2.02M176.9,12.5c0,1.14-.77,1.91-2.14,1.91h-3.16v-3.82h3.16c1.37,0,2.14.77,2.14,1.91M180.36,19.5c0-2.21-1.28-3.26-2.28-3.72.84-.4,2.04-1.58,2.04-3.42,0-2.84-1.88-4.65-5.12-4.65h-6.65v16.56h6.93c2.95,0,5.07-1.67,5.07-4.77M164.76,18.6V7.72h-3.21v10.77c0,1.91-1.14,3.05-2.88,3.05s-2.86-1.14-2.86-3.05V7.72h-3.23v10.88c0,3.51,2.7,5.81,6.09,5.81s6.09-2.3,6.09-5.81M150.48,24.27v-2.88h-7.51V7.72h-3.23v16.56h10.74ZM136.95,19.18h-3.28c-.33,1.33-1.16,2.35-2.79,2.35-.89,0-1.61-.33-2.07-.86-.63-.7-.81-1.49-.81-4.67s.19-3.98.81-4.68c.47-.54,1.19-.86,2.07-.86,1.63,0,2.46,1.02,2.79,2.35h3.28c-.58-3.46-3-5.23-6.09-5.23-1.81,0-3.3.65-4.46,1.81-1.67,1.68-1.63,3.75-1.63,6.61s-.05,4.93,1.63,6.6c1.16,1.16,2.65,1.81,4.46,1.81,3.07,0,5.51-1.77,6.09-5.23"/>
    <path class="cls-2" d="M45.56,29.56V.16h-15.43v28.42c0,4.46-3.29,8.08-7.35,8.08s-7.34-3.62-7.35-8.08V.16H0v29.39h0c.01,12.57,10.21,22.75,22.78,22.75s22.77-10.18,22.78-22.75Z"/>
    <path class="cls-1" d="M34.89,2.72h0s.04-.02.06-.03c-.02,0-.04.02-.06.03M36.25,7.98h0c-.69,0-1.28-.34-1.65-.84,0,0-.01,0-.02-.01,0,0,.01.01.02.01-.03-.04-.06-.09-.09-.13h0s0,0,0,0c-.09-.14-.17-.29-.22-.45-.07-.22-.08-.45-.08-.69s.01-.49.09-.72c.05-.14.12-.28.19-.41,0,0,0,0,0,0,.36-.61,1-1.01,1.76-1.02h7.24v-1.25h-7.34s0,0-.01,0c0,0-.01,0-.02,0h0c-.09,0-.17,0-.26.01-.08,0-.17.02-.25.03-.13.02-.26.05-.39.09-.11.03-.22.07-.32.11h0s-.06.03-.1.04c-.03.01-.06.03-.08.04-.03.02-.06.03-.09.05-.02.01-.05.03-.07.04-.08.05-.16.1-.24.15,0,0,0,0-.01,0,0,0,0,0,.01,0-.2.13-.37.29-.53.46-.01.01-.02.02-.03.04-.06.07-.12.13-.17.2h0c-.09.11-.17.23-.24.36-.05.08-.09.16-.12.24-.01.02-.02.04-.03.06-.04.08-.07.17-.1.25,0,0,0,0,0,0,0,.02-.02.04-.03.07-.12.36-.14.74-.14,1.13s.01.75.13,1.09c.43,1.31,1.63,2.25,3.09,2.26,0-.02,0-.04-.02-.07,0,.02.01.05.02.07h0s7.38,0,7.38,0v-1.22h-7.24ZM34.41,4.71s.01,0,.02,0c0,0-.01,0-.02,0M43.46,31.75h-7.24c-.93,0-1.69-.6-1.96-1.43-.07-.21-.08-.45-.08-.69s.01-.49.09-.72c.28-.82,1.03-1.41,1.95-1.42h7.24v-1.25h-7.38c-1.45.01-2.64.95-3.08,2.25-.12.36-.14.74-.14,1.14s.01.75.12,1.09c.43,1.31,1.63,2.25,3.09,2.26h7.38v-1.22ZM34.65,20.99c.36-.25.6-.35,1.01-.51l6.64-2.9-5.08-1.74-.15-.05s0,0,0,0c0,0,0,0,0,0l-.47-.16-.05-.02h0l-.8-.27-.96-.33,1.63-.58s0,0,0,0c0,0,0,0,0,0l.6-.21,1.14-.4-.28.1,6.09-2.15-11.11-2.34v1.19l1.92.41h0l1.58.33,3.25.7-2.95,1.04h.02s-.03,0-.03,0h0l-5.45,1.92,5.29,1.82.08.03s0-.02,0-.03c0,0,0,.02,0,.03l2.46.85s-2.78,1.21-3.72,1.63c0,0,.02-.01.03-.01-.01,0-.03.01-.04.02,0,0-.01.01-.02.02,0,0,.01-.01.02-.02-.16.07-.27.12-.3.13-1.21.59-2.2,1.51-2.2,2.96,0,1.65,1.2,2.99,2.69,2.99.5,0,.96-.06,1.37-.21h0s.03-.01.05-.02h0c.51-.21.93-.55,1.23-1.13,0,0,0,0,0,0h0s.15-.3.15-.3l.99-1.97h0s0,0,0,0c.28-.55.81-.95,1.43-.95.86,0,1.56.75,1.56,1.68,0,.45-.11.93-.26,1.24-.03.06-.09.17-.11.23l1,.63c.25-.53.44-1.34.44-2.11,0-1.58-1.17-2.84-2.67-2.86-1.08.01-1.97.69-2.44,1.63,0,0,0,0,0,0h0s-1.14,2.27-1.14,2.27h0c-.34.58-.91.76-1.6.76-.91,0-1.65-.82-1.65-1.83,0-.56.31-1.16.77-1.48M36.67,13.1s-.1.02-.13.06c.03-.04.1-.03.13-.06M35.71,15.35s-.05.02-.06.06c0-.03.03-.05.06-.06"/>
    <rect class="cls-2" x="57.94" width="1.88" height="52.11"/>
    <g>
      <path class="cls-2" d="M88.39,12.66c.19,0,.34-.08.34-.18s-.16-.18-.34-.18-.34.08-.34.18.16.18.34.18Z"/>
      <path class="cls-2" d="M92.83,12.58c.19,0,.35-.08.35-.18s-.16-.18-.35-.18-.34.08-.34.18.16.18.34.18Z"/>
      <path class="cls-2" d="M94.37,17.02c-.53-.09-1.05.51-1.05.51,1.18,1.38,2.13.11,2.13-.02,0-.13-.55-.4-1.08-.49Z"/>
      <path class="cls-2" d="M110.95,23.53c1.27-.86,3.08-2.4,2.72-4-.11-.48-.56-1.59-2.5-1.64-1.26-.03-2.54-.97-3.28-1.64-6.82-13.57-14.9-14.63-16.56-14.7-.96-.28-4.3-1-7.88.98-4,2.21-6.84,6.89-8.43,13.94-.7,1.26-1.85,2.68-3.11,3.05-1.88.56-2.01,1.77-1.98,2.27.1,1.69,2.37,2.7,3.86,3.18,0,.02,0,.04,0,.06-.91,11.65.03,18.28,3.06,21.48,2.49,2.64,5.9,2.58,9.18,2.51,1.28-.02,2.61-.05,3.88.08.85.09,1.89.25,2.99.42,2.43.38,5.4.83,8.33.83,3.98,0,7.9-.84,10.39-3.87,3.51-4.28,3.3-11.79-.66-22.96ZM90.06,47.62c-8.36-.87-16.89,4.57-14.78-22.47.03-.44.07-.88.11-1.3-.02,0-.03,0-.05,0-1.71-.29-5.72-2.08-3.01-2.88,2.18-.64,3.63-3.05,4.1-3.96,3.94-17.82,14.65-13.95,14.65-13.95,0,0,8.43-.33,15.58,14.12.94.89,2.62,2.18,4.47,2.22,2.73.07-.39,2.68-2.02,3.5.05.14.1.28.16.42,11.74,32.26-10.86,25.17-19.22,24.31Z"/>
      <path class="cls-2" d="M91.43,7.34s-11.59-4.19-13.37,18.69c-1.78,22.87,5.43,18.27,12.5,19,7.07.74,26.19,6.73,16.26-20.56-6.36-17.48-15.39-17.13-15.39-17.13ZM92.86,11.98c.47,0,.85.36.85.8s-.38.8-.85.8-.86-.36-.86-.8.38-.8.86-.8ZM88.42,12.05c.47,0,.85.36.85.8s-.38.8-.85.8-.86-.36-.86-.8.38-.8.86-.8ZM84.6,17.79s3.21-3.71,6.47-3.15c3.26.56,6.65,2.24,6.67,3.03.02.79-5.84,8.62-13.14.12Z"/>
    </g>
  </g>
  <g>
    <path class="cls-2" d="M88.39,12.66c.19,0,.34-.08.34-.18s-.16-.18-.34-.18-.34.08-.34.18.16.18.34.18Z"/>
    <path class="cls-2" d="M92.83,12.58c.19,0,.35-.08.35-.18s-.16-.18-.35-.18-.34.08-.34.18.16.18.34.18Z"/>
    <path class="cls-2" d="M94.37,17.02c-.53-.09-1.05.51-1.05.51,1.18,1.38,2.13.11,2.13-.02,0-.13-.55-.4-1.08-.49Z"/>
    <path class="cls-2" d="M110.95,23.53c1.27-.86,3.08-2.4,2.72-4-.11-.48-.56-1.59-2.5-1.64-1.26-.03-2.54-.97-3.28-1.64-6.82-13.57-14.9-14.63-16.56-14.7-.96-.28-4.3-1-7.88.98-4,2.21-6.84,6.89-8.43,13.94-.7,1.26-1.85,2.68-3.11,3.05-1.88.56-2.01,1.77-1.98,2.27.1,1.69,2.37,2.7,3.86,3.18,0,.02,0,.04,0,.06-.91,11.65.03,18.28,3.06,21.48,2.49,2.64,5.9,2.58,9.18,2.51,1.28-.02,2.61-.05,3.88.08.85.09,1.89.25,2.99.42,2.43.38,5.4.83,8.33.83,3.98,0,7.9-.84,10.39-3.87,3.51-4.28,3.3-11.79-.66-22.96ZM90.06,47.62c-8.36-.87-16.89,4.57-14.78-22.47.03-.44.07-.88.11-1.3-.02,0-.03,0-.05,0-1.71-.29-5.72-2.08-3.01-2.88,2.18-.64,3.63-3.05,4.1-3.96,3.94-17.82,14.65-13.95,14.65-13.95,0,0,8.43-.33,15.58,14.12.94.89,2.62,2.18,4.47,2.22,2.73.07-.39,2.68-2.02,3.5.05.14.1.28.16.42,11.74,32.26-10.86,25.17-19.22,24.31Z"/>
    <path class="cls-2" d="M91.43,7.34s-11.59-4.19-13.37,18.69c-1.78,22.87,5.43,18.27,12.5,19,7.07.74,26.19,6.73,16.26-20.56-6.36-17.48-15.39-17.13-15.39-17.13ZM92.86,11.98c.47,0,.85.36.85.8s-.38.8-.85.8-.86-.36-.86-.8.38-.8.86-.8ZM88.42,12.05c.47,0,.85.36.85.8s-.38.8-.85.8-.86-.36-.86-.8.38-.8.86-.8ZM84.6,17.79s3.21-3.71,6.47-3.15c3.26.56,6.65,2.24,6.67,3.03.02.79-5.84,8.62-13.14.12Z"/>
  </g>
</svg>