<?xml version="1.0" encoding="UTF-8"?>
<svg id="Layer_1" data-name="Layer 1" xmlns="http://www.w3.org/2000/svg" viewBox="0 0 227.97 261.06">
  <defs>
    <style>
      .cls-1 {
        fill: #812990;
      }

      .cls-1, .cls-2 {
        stroke-width: 0px;
      }

      .cls-2 {
        fill: #fff;
      }
    </style>
  </defs>
  <path class="cls-2" d="M150.64,0v142.2c0,22.32-16.38,40.42-36.86,40.42s-36.86-18.1-36.86-40.42V0H0v147.08c0,30.23,12.01,59.22,33.39,80.6,21.38,21.38,50.37,33.38,80.6,33.38s59.22-12.01,80.6-33.38,33.39-50.37,33.39-80.6V0h-77.33Z"/>
  <g>
    <path class="cls-1" d="M165.5,35.65c.73,2.08,1.9,3.98,3.42,5.57,1.52,1.59,3.37,2.84,5.42,3.65s4.24,1.19,6.44,1.09h36.86v-6.1h-36.25c-1.38,0-2.74-.27-4.01-.8-1.27-.54-2.41-1.32-3.37-2.32-.95-.99-1.7-2.17-2.18-3.45-.49-1.29-.7-2.66-.64-4.04-.04-1.37.19-2.74.68-4.03.49-1.28,1.23-2.46,2.18-3.45s2.09-1.79,3.35-2.34c1.26-.55,2.62-.85,3.99-.87h36.25v-6.27h-36.86v-.04c-2.2-.06-4.39.34-6.43,1.17-2.04.84-3.87,2.1-5.39,3.69s-2.68,3.49-3.42,5.57c-.74,2.08-1.03,4.28-.85,6.48-.2,2.19.08,4.41.81,6.48Z"/>
    <path class="cls-1" d="M195.32,88.55l-20.15,8.85c-6.02,2.95-11.02,7.54-11.02,14.79-.19,3.77,1.12,7.46,3.65,10.26,2.53,2.8,6.06,4.49,9.83,4.69,2.34.06,4.67-.3,6.88-1.06h.25c2.68-1.04,4.87-3.04,6.14-5.61l.74-1.52,4.96-9.87c.6-1.39,1.56-2.59,2.8-3.47s2.69-1.39,4.2-1.49c2.14.1,4.16,1.03,5.63,2.6s2.25,3.65,2.2,5.8c.01,2.14-.43,4.27-1.31,6.23-.17.38-.36.75-.57,1.11l5.04,3.15c1.44-3.34,2.19-6.93,2.21-10.57.25-3.16-.63-6.31-2.48-8.87-1.86-2.57-4.57-4.39-7.65-5.13-3.08-.75-6.33-.37-9.15,1.07-2.83,1.43-5.05,3.83-6.27,6.76l-5.69,11.39c-.82,1.35-2,2.43-3.42,3.12s-3,.96-4.57.77c-2.29-.15-4.43-1.19-5.96-2.89-1.53-1.71-2.33-3.95-2.23-6.24.03-1.45.4-2.88,1.07-4.17.67-1.29,1.62-2.41,2.78-3.28,1.58-1.07,3.28-1.94,5.08-2.58l33.22-14.5-37.52-12.86,45.99-16.22-55.62-11.67v5.94l33.83,7.21-42.06,14.83,39.2,13.47Z"/>
    <path class="cls-1" d="M174.22,132.35c-2.07.82-3.94,2.07-5.49,3.67s-2.74,3.51-3.49,5.61c-.75,2.1-1.05,4.33-.87,6.55-.19,2.19.09,4.4.83,6.47.73,2.07,1.9,3.97,3.42,5.55,1.52,1.59,3.37,2.83,5.41,3.64,2.04.82,4.24,1.18,6.43,1.08h36.86v-6.14h-36.25v-.04c-1.34-.04-2.67-.34-3.89-.89s-2.33-1.34-3.25-2.31-1.64-2.13-2.11-3.39c-.48-1.26-.7-2.59-.65-3.94-.05-1.38.18-2.75.67-4.04s1.23-2.47,2.18-3.47c.95-1,2.09-1.8,3.35-2.35s2.62-.85,4-.87h36.25v-6.23h-36.86c-2.23-.11-4.45.26-6.52,1.08Z"/>
  </g>
</svg>